<svg width="157" height="41" viewBox="0 0 157 41" fill="none" xmlns="http://www.w3.org/2000/svg">
<path d="M81.588 15.4656V0H94.297V9.66459H85.8228V15.4633H81.588V15.4656ZM90.0622 5.79876V3.86584H85.8251V5.79876H90.0622Z" fill="#F7F7F6"/>
<path d="M97.2625 15.4656V0H109.972V15.4656H105.734V9.66459H101.497V15.4633H97.2625V15.4656ZM105.737 5.79876V3.86584H101.5V5.79876H105.737Z" fill="#F7F7F6"/>
<path d="M112.939 15.4656V0H123.177L125.648 2.33034L125.639 5.83714L123.157 7.73393L125.651 9.63072V15.4679H121.414V9.66459H117.177V15.4633H112.939V15.4656ZM121.411 5.79876V3.86584H117.174V5.79876H121.411Z" fill="#F7F7F6"/>
<path d="M128.614 15.4656V0H141.323V3.86584H132.849V5.79876H139.205V9.66459H132.849V11.5975H141.323V15.4633H128.614V15.4656Z" fill="#F7F7F6"/>
<path d="M144.291 15.4656V0H157V15.4656H152.763V9.66459H148.526V15.4633H144.291V15.4656ZM152.763 5.79876V3.86584H148.526V5.79876H152.763Z" fill="#F7F7F6"/>
<path d="M81.5879 41V19.4963H86.9371V35.6235H97.6332V41H81.5879Z" fill="#FAC506"/>
<path d="M101.376 41V19.4963H117.421V41H112.072V32.9364H106.723V41H101.376ZM112.074 27.5599V24.8728H106.725V27.5599H112.074Z" fill="#FAC506"/>
<path d="M121.166 41V19.4963H137.211V27.5599L134.538 30.247L137.211 32.9341V40.9977H121.166V41ZM131.862 27.5599V24.8728H126.513V27.5599H131.862ZM131.862 35.6235V32.9364H126.513V35.6235H131.862Z" fill="#FAC506"/>
<path d="M140.954 41V35.6235H151.65V32.9364H140.954V19.4963H156.999V24.8728H146.303V27.5599H156.999V41H140.954Z" fill="#FAC506"/>
<path d="M16.3171 0H8.15745H0V8.1991H8.15745H16.3171H24.4746V0H16.3171Z" fill="#FAC506"/>
<path d="M24.4746 8.1991V16.4005H16.3171H8.15745H0V24.5995V32.7986V41H8.15745V32.7986V24.5995H16.3171H24.4746L28.5544 20.4989L32.632 16.4005V8.1991H24.4746Z" fill="#FAC506"/>
<path d="M69.3485 36.8993L65.2686 32.7986H57.1112H48.9515V41H57.1112H65.2686H73.4261L69.3485 36.8993Z" fill="#F7F7F6"/>
<path d="M48.9515 16.4005V8.1991V0H40.794V8.1991V16.4005V24.5996V32.7986H48.9515V24.5996V16.4005Z" fill="#F7F7F6"/>
</svg>
